<mxfile host="Electron" modified="2023-05-18T15:08:02.593Z" agent="Mozilla/5.0 (Windows NT 10.0; Win64; x64) AppleWebKit/537.36 (KHTML, like Gecko) draw.io/21.2.8 Chrome/112.0.5615.165 Electron/24.2.0 Safari/537.36" etag="4Ok-NdVv2E-DIrSMTlyv" version="21.2.8" type="device">
  <diagram name="Page-1" id="90a13364-a465-7bf4-72fc-28e22215d7a0">
    <mxGraphModel dx="1588" dy="1576" grid="1" gridSize="10" guides="1" tooltips="1" connect="1" arrows="1" fold="1" page="1" pageScale="1.5" pageWidth="1920" pageHeight="1200" background="none" math="0" shadow="0">
      <root>
        <mxCell id="0" style=";html=1;" />
        <mxCell id="1" style=";html=1;" parent="0" />
        <mxCell id="Nv2ZJM5Azdes68pqQ0xc-96" value="" style="rounded=0;whiteSpace=wrap;html=1;shadow=1;glass=0;fillColor=#dae8fc;strokeColor=#6c8ebf;container=0;" parent="1" vertex="1">
          <mxGeometry x="600" y="480" width="1620" height="1010" as="geometry" />
        </mxCell>
        <mxCell id="YffSBHBRbh6OPDNjURyr-24" value="" style="rounded=0;whiteSpace=wrap;html=1;fillColor=#d5e8d4;strokeColor=#82b366;shadow=1;" parent="1" vertex="1">
          <mxGeometry x="1620" y="990" width="440" height="140" as="geometry" />
        </mxCell>
        <mxCell id="6D3V5bIXzJbrIAl-vdKd-8" value="" style="rounded=0;whiteSpace=wrap;html=1;fillColor=#d5e8d4;strokeColor=#82b366;shadow=1;" parent="1" vertex="1">
          <mxGeometry x="900" y="880" width="460" height="240" as="geometry" />
        </mxCell>
        <mxCell id="Nv2ZJM5Azdes68pqQ0xc-43" value="" style="edgeStyle=orthogonalEdgeStyle;rounded=0;orthogonalLoop=1;jettySize=auto;html=1;" parent="1" source="bJu8V4bGNB0CwvxjwAMf-3" target="Nv2ZJM5Azdes68pqQ0xc-41" edge="1">
          <mxGeometry relative="1" as="geometry" />
        </mxCell>
        <mxCell id="bJu8V4bGNB0CwvxjwAMf-3" value="DDR RX&lt;br&gt;sub-GHz" style="whiteSpace=wrap;html=1;shadow=1;fontSize=18;fillColor=#f5f5f5;strokeColor=#666666;" parent="1" vertex="1">
          <mxGeometry x="2060" y="640" width="120" height="60" as="geometry" />
        </mxCell>
        <mxCell id="Nv2ZJM5Azdes68pqQ0xc-44" value="" style="edgeStyle=orthogonalEdgeStyle;rounded=0;orthogonalLoop=1;jettySize=auto;html=1;" parent="1" source="bJu8V4bGNB0CwvxjwAMf-5" target="Nv2ZJM5Azdes68pqQ0xc-42" edge="1">
          <mxGeometry relative="1" as="geometry" />
        </mxCell>
        <mxCell id="bJu8V4bGNB0CwvxjwAMf-5" value="DDR RX&lt;br&gt;2.4GHz" style="whiteSpace=wrap;html=1;shadow=1;fontSize=18;fillColor=#f5f5f5;strokeColor=#666666;" parent="1" vertex="1">
          <mxGeometry x="2060" y="730" width="120" height="60" as="geometry" />
        </mxCell>
        <mxCell id="YffSBHBRbh6OPDNjURyr-13" style="edgeStyle=orthogonalEdgeStyle;rounded=0;orthogonalLoop=1;jettySize=auto;html=1;exitX=1;exitY=0.5;exitDx=0;exitDy=0;entryX=0.25;entryY=0;entryDx=0;entryDy=0;" parent="1" source="bJu8V4bGNB0CwvxjwAMf-6" target="Nv2ZJM5Azdes68pqQ0xc-15" edge="1">
          <mxGeometry relative="1" as="geometry" />
        </mxCell>
        <mxCell id="bJu8V4bGNB0CwvxjwAMf-6" value="DDR TX" style="whiteSpace=wrap;html=1;shadow=1;fontSize=18;fillColor=#f5f5f5;strokeColor=#666666;" parent="1" vertex="1">
          <mxGeometry x="2060" y="820" width="120" height="60" as="geometry" />
        </mxCell>
        <mxCell id="5j33_QuICFPkO5fonPvE-3" style="edgeStyle=orthogonalEdgeStyle;rounded=0;orthogonalLoop=1;jettySize=auto;html=1;exitX=0.5;exitY=0;exitDx=0;exitDy=0;" edge="1" parent="1" source="bJu8V4bGNB0CwvxjwAMf-7">
          <mxGeometry relative="1" as="geometry">
            <mxPoint x="1779.7777777777778" y="1210" as="targetPoint" />
          </mxGeometry>
        </mxCell>
        <mxCell id="5j33_QuICFPkO5fonPvE-12" style="edgeStyle=orthogonalEdgeStyle;rounded=0;orthogonalLoop=1;jettySize=auto;html=1;exitX=0.5;exitY=1;exitDx=0;exitDy=0;startArrow=classic;startFill=1;endArrow=none;endFill=0;" edge="1" parent="1" source="bJu8V4bGNB0CwvxjwAMf-7">
          <mxGeometry relative="1" as="geometry">
            <mxPoint x="2060" y="1350.0000000000002" as="targetPoint" />
            <Array as="points">
              <mxPoint x="1780" y="1350" />
            </Array>
          </mxGeometry>
        </mxCell>
        <mxCell id="bJu8V4bGNB0CwvxjwAMf-7" value="PLL1" style="whiteSpace=wrap;html=1;shadow=1;fontSize=18;fillColor=#f5f5f5;strokeColor=#666666;direction=east;" parent="1" vertex="1">
          <mxGeometry x="1660" y="1260" width="240" height="60" as="geometry" />
        </mxCell>
        <mxCell id="Nv2ZJM5Azdes68pqQ0xc-12" value="&lt;font style=&quot;font-size: 18px;&quot;&gt;7.2 MHz clock&lt;/font&gt;" style="text;html=1;strokeColor=none;fillColor=none;align=center;verticalAlign=middle;whiteSpace=wrap;rounded=0;direction=east;" parent="1" vertex="1">
          <mxGeometry x="1680" y="1180" width="200" height="30" as="geometry" />
        </mxCell>
        <mxCell id="Nv2ZJM5Azdes68pqQ0xc-106" style="edgeStyle=orthogonalEdgeStyle;rounded=0;orthogonalLoop=1;jettySize=auto;html=1;exitX=1;exitY=0.5;exitDx=0;exitDy=0;startArrow=none;startFill=0;endArrow=classic;endFill=1;" parent="1" source="Nv2ZJM5Azdes68pqQ0xc-13" target="Nv2ZJM5Azdes68pqQ0xc-25" edge="1">
          <mxGeometry relative="1" as="geometry" />
        </mxCell>
        <mxCell id="Nv2ZJM5Azdes68pqQ0xc-13" value="Phase accumulator" style="whiteSpace=wrap;html=1;shadow=1;fontSize=18;fillColor=#f5f5f5;strokeColor=#666666;" parent="1" vertex="1">
          <mxGeometry x="935" y="970" width="120" height="60" as="geometry" />
        </mxCell>
        <mxCell id="Nv2ZJM5Azdes68pqQ0xc-22" style="edgeStyle=orthogonalEdgeStyle;rounded=0;orthogonalLoop=1;jettySize=auto;html=1;exitX=0.75;exitY=0;exitDx=0;exitDy=0;entryX=1;entryY=0.5;entryDx=0;entryDy=0;" parent="1" source="Nv2ZJM5Azdes68pqQ0xc-15" target="bJu8V4bGNB0CwvxjwAMf-3" edge="1">
          <mxGeometry relative="1" as="geometry" />
        </mxCell>
        <mxCell id="Nv2ZJM5Azdes68pqQ0xc-23" style="edgeStyle=orthogonalEdgeStyle;rounded=0;orthogonalLoop=1;jettySize=auto;html=1;exitX=0.5;exitY=0;exitDx=0;exitDy=0;entryX=1;entryY=0.5;entryDx=0;entryDy=0;" parent="1" source="Nv2ZJM5Azdes68pqQ0xc-15" target="bJu8V4bGNB0CwvxjwAMf-5" edge="1">
          <mxGeometry relative="1" as="geometry" />
        </mxCell>
        <mxCell id="5j33_QuICFPkO5fonPvE-8" style="edgeStyle=orthogonalEdgeStyle;rounded=0;orthogonalLoop=1;jettySize=auto;html=1;exitX=0;exitY=0.5;exitDx=0;exitDy=0;entryX=0.5;entryY=1;entryDx=0;entryDy=0;" edge="1" parent="1" source="Nv2ZJM5Azdes68pqQ0xc-15" target="H7sROJZ5ojz0b0a_24bi-4">
          <mxGeometry relative="1" as="geometry">
            <Array as="points">
              <mxPoint x="2290" y="1350" />
              <mxPoint x="2060" y="1350" />
            </Array>
          </mxGeometry>
        </mxCell>
        <mxCell id="Nv2ZJM5Azdes68pqQ0xc-15" value="AT86RF215" style="whiteSpace=wrap;html=1;shadow=1;fontSize=18;fillColor=#f5f5f5;strokeColor=#666666;rotation=-90;" parent="1" vertex="1">
          <mxGeometry x="2110" y="730" width="360" height="60" as="geometry" />
        </mxCell>
        <mxCell id="Nv2ZJM5Azdes68pqQ0xc-100" style="edgeStyle=orthogonalEdgeStyle;rounded=0;orthogonalLoop=1;jettySize=auto;html=1;exitX=0.5;exitY=0;exitDx=0;exitDy=0;entryX=0.5;entryY=1;entryDx=0;entryDy=0;startArrow=none;startFill=0;" parent="1" source="Nv2ZJM5Azdes68pqQ0xc-24" target="Nv2ZJM5Azdes68pqQ0xc-25" edge="1">
          <mxGeometry relative="1" as="geometry" />
        </mxCell>
        <mxCell id="Nv2ZJM5Azdes68pqQ0xc-24" value="Dither source" style="whiteSpace=wrap;html=1;shadow=1;fontSize=18;fillColor=#f5f5f5;strokeColor=#666666;" parent="1" vertex="1">
          <mxGeometry x="1075" y="1050" width="120" height="60" as="geometry" />
        </mxCell>
        <mxCell id="Nv2ZJM5Azdes68pqQ0xc-107" style="edgeStyle=orthogonalEdgeStyle;rounded=0;orthogonalLoop=1;jettySize=auto;html=1;exitX=1;exitY=0.5;exitDx=0;exitDy=0;entryX=0;entryY=0.5;entryDx=0;entryDy=0;startArrow=none;startFill=0;endArrow=classic;endFill=1;" parent="1" source="Nv2ZJM5Azdes68pqQ0xc-25" target="Nv2ZJM5Azdes68pqQ0xc-28" edge="1">
          <mxGeometry relative="1" as="geometry" />
        </mxCell>
        <mxCell id="Nv2ZJM5Azdes68pqQ0xc-25" value="Dither adder" style="whiteSpace=wrap;html=1;shadow=1;fontSize=18;fillColor=#f5f5f5;strokeColor=#666666;" parent="1" vertex="1">
          <mxGeometry x="1075" y="970" width="120" height="60" as="geometry" />
        </mxCell>
        <mxCell id="H7sROJZ5ojz0b0a_24bi-111" style="edgeStyle=orthogonalEdgeStyle;rounded=0;orthogonalLoop=1;jettySize=auto;html=1;exitX=1;exitY=0.5;exitDx=0;exitDy=0;entryX=0.25;entryY=1;entryDx=0;entryDy=0;" parent="1" source="Nv2ZJM5Azdes68pqQ0xc-28" target="Nv2ZJM5Azdes68pqQ0xc-34" edge="1">
          <mxGeometry relative="1" as="geometry" />
        </mxCell>
        <mxCell id="Nv2ZJM5Azdes68pqQ0xc-28" value="Sincos LUT" style="whiteSpace=wrap;html=1;shadow=1;fontSize=18;fillColor=#f5f5f5;strokeColor=#666666;" parent="1" vertex="1">
          <mxGeometry x="1215" y="970" width="120" height="60" as="geometry" />
        </mxCell>
        <mxCell id="H7sROJZ5ojz0b0a_24bi-61" style="edgeStyle=orthogonalEdgeStyle;rounded=0;orthogonalLoop=1;jettySize=auto;html=1;exitX=0.5;exitY=1;exitDx=0;exitDy=0;entryX=0.5;entryY=0;entryDx=0;entryDy=0;" parent="1" source="Nv2ZJM5Azdes68pqQ0xc-31" target="Nv2ZJM5Azdes68pqQ0xc-62" edge="1">
          <mxGeometry relative="1" as="geometry" />
        </mxCell>
        <mxCell id="Nv2ZJM5Azdes68pqQ0xc-31" value="Control registers" style="whiteSpace=wrap;html=1;shadow=1;fontSize=18;fillColor=#f5f5f5;strokeColor=#666666;" parent="1" vertex="1">
          <mxGeometry x="640" y="680" width="120" height="60" as="geometry" />
        </mxCell>
        <mxCell id="6D3V5bIXzJbrIAl-vdKd-28" value="" style="edgeStyle=orthogonalEdgeStyle;rounded=0;orthogonalLoop=1;jettySize=auto;html=1;startArrow=classic;startFill=1;endArrow=classic;endFill=1;" parent="1" source="Nv2ZJM5Azdes68pqQ0xc-32" target="Nv2ZJM5Azdes68pqQ0xc-31" edge="1">
          <mxGeometry relative="1" as="geometry" />
        </mxCell>
        <mxCell id="Nv2ZJM5Azdes68pqQ0xc-32" value="SPI slave" style="whiteSpace=wrap;html=1;shadow=1;fontSize=18;fillColor=#f5f5f5;strokeColor=#666666;direction=east;rotation=-90;" parent="1" vertex="1">
          <mxGeometry x="470" y="680" width="120" height="60" as="geometry" />
        </mxCell>
        <mxCell id="Nv2ZJM5Azdes68pqQ0xc-50" value="" style="edgeStyle=orthogonalEdgeStyle;rounded=0;orthogonalLoop=1;jettySize=auto;html=1;" parent="1" source="Nv2ZJM5Azdes68pqQ0xc-33" target="Nv2ZJM5Azdes68pqQ0xc-35" edge="1">
          <mxGeometry relative="1" as="geometry" />
        </mxCell>
        <mxCell id="Nv2ZJM5Azdes68pqQ0xc-33" value="40kHz LO" style="whiteSpace=wrap;html=1;shadow=1;fontSize=18;fillColor=#f5f5f5;strokeColor=#666666;glass=0;" parent="1" vertex="1">
          <mxGeometry x="1660" y="600" width="120" height="60" as="geometry" />
        </mxCell>
        <mxCell id="YffSBHBRbh6OPDNjURyr-9" style="edgeStyle=orthogonalEdgeStyle;rounded=0;orthogonalLoop=1;jettySize=auto;html=1;exitX=0.5;exitY=0;exitDx=0;exitDy=0;entryX=0;entryY=0.5;entryDx=0;entryDy=0;" parent="1" source="Nv2ZJM5Azdes68pqQ0xc-34" target="6D3V5bIXzJbrIAl-vdKd-2" edge="1">
          <mxGeometry relative="1" as="geometry" />
        </mxCell>
        <mxCell id="Nv2ZJM5Azdes68pqQ0xc-34" value="Modulation&lt;br&gt;selector" style="shape=trapezoid;perimeter=trapezoidPerimeter;whiteSpace=wrap;html=1;fixedSize=1;fillColor=#f5f5f5;fontColor=#333333;strokeColor=#666666;shadow=1;direction=west;rotation=-90;" parent="1" vertex="1">
          <mxGeometry x="1520" y="1000" width="120" height="60" as="geometry" />
        </mxCell>
        <mxCell id="Nv2ZJM5Azdes68pqQ0xc-51" style="edgeStyle=orthogonalEdgeStyle;rounded=0;orthogonalLoop=1;jettySize=auto;html=1;exitX=0;exitY=0.5;exitDx=0;exitDy=0;entryX=1;entryY=0.5;entryDx=0;entryDy=0;" parent="1" source="Nv2ZJM5Azdes68pqQ0xc-35" target="Nv2ZJM5Azdes68pqQ0xc-46" edge="1">
          <mxGeometry relative="1" as="geometry" />
        </mxCell>
        <mxCell id="Nv2ZJM5Azdes68pqQ0xc-35" value="Complex multiplier" style="whiteSpace=wrap;html=1;shadow=1;fontSize=18;fillColor=#f5f5f5;strokeColor=#666666;glass=0;" parent="1" vertex="1">
          <mxGeometry x="1660" y="680" width="120" height="60" as="geometry" />
        </mxCell>
        <mxCell id="6D3V5bIXzJbrIAl-vdKd-20" style="edgeStyle=orthogonalEdgeStyle;rounded=0;orthogonalLoop=1;jettySize=auto;html=1;exitX=0.5;exitY=0;exitDx=0;exitDy=0;entryX=1;entryY=0.5;entryDx=0;entryDy=0;startArrow=none;startFill=0;endArrow=classic;endFill=1;" parent="1" source="Nv2ZJM5Azdes68pqQ0xc-36" target="Nv2ZJM5Azdes68pqQ0xc-35" edge="1">
          <mxGeometry relative="1" as="geometry" />
        </mxCell>
        <mxCell id="Nv2ZJM5Azdes68pqQ0xc-36" value="Band&lt;br&gt;selector" style="shape=trapezoid;perimeter=trapezoidPerimeter;whiteSpace=wrap;html=1;fixedSize=1;fillColor=#f5f5f5;fontColor=#333333;strokeColor=#666666;shadow=1;direction=east;rotation=-90;" parent="1" vertex="1">
          <mxGeometry x="1790" y="680" width="120" height="60" as="geometry" />
        </mxCell>
        <mxCell id="6D3V5bIXzJbrIAl-vdKd-22" style="edgeStyle=orthogonalEdgeStyle;rounded=0;orthogonalLoop=1;jettySize=auto;html=1;exitX=0;exitY=0.5;exitDx=0;exitDy=0;entryX=0.75;entryY=1;entryDx=0;entryDy=0;startArrow=none;startFill=0;endArrow=classic;endFill=1;" parent="1" source="Nv2ZJM5Azdes68pqQ0xc-41" target="Nv2ZJM5Azdes68pqQ0xc-36" edge="1">
          <mxGeometry relative="1" as="geometry" />
        </mxCell>
        <mxCell id="Nv2ZJM5Azdes68pqQ0xc-41" value="Deserializer" style="whiteSpace=wrap;html=1;shadow=1;fontSize=18;fillColor=#f5f5f5;strokeColor=#666666;glass=0;" parent="1" vertex="1">
          <mxGeometry x="1920" y="640" width="120" height="60" as="geometry" />
        </mxCell>
        <mxCell id="6D3V5bIXzJbrIAl-vdKd-23" style="edgeStyle=orthogonalEdgeStyle;rounded=0;orthogonalLoop=1;jettySize=auto;html=1;exitX=0;exitY=0.5;exitDx=0;exitDy=0;entryX=0.25;entryY=1;entryDx=0;entryDy=0;startArrow=none;startFill=0;endArrow=classic;endFill=1;" parent="1" source="Nv2ZJM5Azdes68pqQ0xc-42" target="Nv2ZJM5Azdes68pqQ0xc-36" edge="1">
          <mxGeometry relative="1" as="geometry" />
        </mxCell>
        <mxCell id="Nv2ZJM5Azdes68pqQ0xc-42" value="Deserializer" style="whiteSpace=wrap;html=1;shadow=1;fontSize=18;fillColor=#f5f5f5;strokeColor=#666666;glass=0;" parent="1" vertex="1">
          <mxGeometry x="1920" y="730" width="120" height="60" as="geometry" />
        </mxCell>
        <mxCell id="Nv2ZJM5Azdes68pqQ0xc-53" style="edgeStyle=orthogonalEdgeStyle;rounded=0;orthogonalLoop=1;jettySize=auto;html=1;exitX=0;exitY=0.5;exitDx=0;exitDy=0;entryX=1;entryY=0.5;entryDx=0;entryDy=0;" parent="1" source="Nv2ZJM5Azdes68pqQ0xc-46" target="Nv2ZJM5Azdes68pqQ0xc-52" edge="1">
          <mxGeometry relative="1" as="geometry" />
        </mxCell>
        <mxCell id="Nv2ZJM5Azdes68pqQ0xc-46" value="FIR channel filter" style="whiteSpace=wrap;html=1;shadow=1;fontSize=18;fillColor=#f5f5f5;strokeColor=#666666;glass=0;" parent="1" vertex="1">
          <mxGeometry x="1520" y="680" width="120" height="60" as="geometry" />
        </mxCell>
        <mxCell id="Nv2ZJM5Azdes68pqQ0xc-56" style="edgeStyle=orthogonalEdgeStyle;rounded=0;orthogonalLoop=1;jettySize=auto;html=1;exitX=0;exitY=0.25;exitDx=0;exitDy=0;entryX=1;entryY=0.5;entryDx=0;entryDy=0;" parent="1" source="Nv2ZJM5Azdes68pqQ0xc-52" target="Nv2ZJM5Azdes68pqQ0xc-54" edge="1">
          <mxGeometry relative="1" as="geometry" />
        </mxCell>
        <mxCell id="Nv2ZJM5Azdes68pqQ0xc-58" value="" style="edgeStyle=orthogonalEdgeStyle;rounded=0;orthogonalLoop=1;jettySize=auto;html=1;" parent="1" source="Nv2ZJM5Azdes68pqQ0xc-52" target="Nv2ZJM5Azdes68pqQ0xc-55" edge="1">
          <mxGeometry relative="1" as="geometry" />
        </mxCell>
        <mxCell id="Nv2ZJM5Azdes68pqQ0xc-60" style="edgeStyle=orthogonalEdgeStyle;rounded=0;orthogonalLoop=1;jettySize=auto;html=1;exitX=0;exitY=0.75;exitDx=0;exitDy=0;entryX=1;entryY=0.5;entryDx=0;entryDy=0;" parent="1" source="Nv2ZJM5Azdes68pqQ0xc-52" target="Nv2ZJM5Azdes68pqQ0xc-59" edge="1">
          <mxGeometry relative="1" as="geometry" />
        </mxCell>
        <mxCell id="Nv2ZJM5Azdes68pqQ0xc-52" value="Decimator" style="whiteSpace=wrap;html=1;shadow=1;fontSize=18;fillColor=#f5f5f5;strokeColor=#666666;glass=0;" parent="1" vertex="1">
          <mxGeometry x="1360" y="680" width="120" height="60" as="geometry" />
        </mxCell>
        <mxCell id="Nv2ZJM5Azdes68pqQ0xc-75" style="edgeStyle=orthogonalEdgeStyle;rounded=0;orthogonalLoop=1;jettySize=auto;html=1;exitX=0;exitY=0.5;exitDx=0;exitDy=0;entryX=0.75;entryY=1;entryDx=0;entryDy=0;" parent="1" source="Nv2ZJM5Azdes68pqQ0xc-54" target="Nv2ZJM5Azdes68pqQ0xc-71" edge="1">
          <mxGeometry relative="1" as="geometry" />
        </mxCell>
        <mxCell id="Nv2ZJM5Azdes68pqQ0xc-54" value="Amplitude demodulator" style="whiteSpace=wrap;html=1;shadow=1;fontSize=18;fillColor=#f5f5f5;strokeColor=#666666;glass=0;" parent="1" vertex="1">
          <mxGeometry x="1200" y="600" width="120" height="60" as="geometry" />
        </mxCell>
        <mxCell id="Nv2ZJM5Azdes68pqQ0xc-73" value="" style="edgeStyle=orthogonalEdgeStyle;rounded=0;orthogonalLoop=1;jettySize=auto;html=1;" parent="1" source="Nv2ZJM5Azdes68pqQ0xc-55" target="Nv2ZJM5Azdes68pqQ0xc-71" edge="1">
          <mxGeometry relative="1" as="geometry" />
        </mxCell>
        <mxCell id="Nv2ZJM5Azdes68pqQ0xc-55" value="Frequency demodulator" style="whiteSpace=wrap;html=1;shadow=1;fontSize=18;fillColor=#f5f5f5;strokeColor=#666666;glass=0;" parent="1" vertex="1">
          <mxGeometry x="1200" y="680" width="120" height="60" as="geometry" />
        </mxCell>
        <mxCell id="Nv2ZJM5Azdes68pqQ0xc-74" style="edgeStyle=orthogonalEdgeStyle;rounded=0;orthogonalLoop=1;jettySize=auto;html=1;exitX=0;exitY=0.5;exitDx=0;exitDy=0;entryX=0.25;entryY=1;entryDx=0;entryDy=0;" parent="1" source="Nv2ZJM5Azdes68pqQ0xc-59" target="Nv2ZJM5Azdes68pqQ0xc-71" edge="1">
          <mxGeometry relative="1" as="geometry" />
        </mxCell>
        <mxCell id="Nv2ZJM5Azdes68pqQ0xc-59" value="SSB demodulator" style="whiteSpace=wrap;html=1;shadow=1;fontSize=18;fillColor=#f5f5f5;strokeColor=#666666;glass=0;" parent="1" vertex="1">
          <mxGeometry x="1200" y="760" width="120" height="60" as="geometry" />
        </mxCell>
        <mxCell id="H7sROJZ5ojz0b0a_24bi-118" style="edgeStyle=orthogonalEdgeStyle;rounded=0;orthogonalLoop=1;jettySize=auto;html=1;exitX=0.5;exitY=1;exitDx=0;exitDy=0;entryX=0.5;entryY=0;entryDx=0;entryDy=0;" parent="1" source="Nv2ZJM5Azdes68pqQ0xc-62" target="H7sROJZ5ojz0b0a_24bi-104" edge="1">
          <mxGeometry relative="1" as="geometry" />
        </mxCell>
        <mxCell id="Nv2ZJM5Azdes68pqQ0xc-62" value="Modulation register" style="whiteSpace=wrap;html=1;shadow=1;fontSize=18;fillColor=#f5f5f5;strokeColor=#666666;glass=0;" parent="1" vertex="1">
          <mxGeometry x="640" y="805" width="120" height="60" as="geometry" />
        </mxCell>
        <mxCell id="H7sROJZ5ojz0b0a_24bi-69" style="edgeStyle=orthogonalEdgeStyle;rounded=0;orthogonalLoop=1;jettySize=auto;html=1;exitX=0.5;exitY=0;exitDx=0;exitDy=0;entryX=0.5;entryY=1;entryDx=0;entryDy=0;" parent="1" source="Nv2ZJM5Azdes68pqQ0xc-68" target="Nv2ZJM5Azdes68pqQ0xc-69" edge="1">
          <mxGeometry relative="1" as="geometry" />
        </mxCell>
        <mxCell id="Nv2ZJM5Azdes68pqQ0xc-68" value="Zero word&lt;br&gt;insertion" style="whiteSpace=wrap;html=1;shadow=1;fontSize=18;fillColor=#f5f5f5;strokeColor=#666666;glass=0;" parent="1" vertex="1">
          <mxGeometry x="1920" y="910" width="120" height="60" as="geometry" />
        </mxCell>
        <mxCell id="Nv2ZJM5Azdes68pqQ0xc-84" value="" style="edgeStyle=orthogonalEdgeStyle;rounded=0;orthogonalLoop=1;jettySize=auto;html=1;" parent="1" source="Nv2ZJM5Azdes68pqQ0xc-69" target="bJu8V4bGNB0CwvxjwAMf-6" edge="1">
          <mxGeometry relative="1" as="geometry" />
        </mxCell>
        <mxCell id="Nv2ZJM5Azdes68pqQ0xc-69" value="Serializer" style="whiteSpace=wrap;html=1;shadow=1;fontSize=18;fillColor=#f5f5f5;strokeColor=#666666;glass=0;" parent="1" vertex="1">
          <mxGeometry x="1920" y="820" width="120" height="60" as="geometry" />
        </mxCell>
        <mxCell id="Nv2ZJM5Azdes68pqQ0xc-88" value="" style="edgeStyle=orthogonalEdgeStyle;rounded=0;orthogonalLoop=1;jettySize=auto;html=1;" parent="1" source="Nv2ZJM5Azdes68pqQ0xc-71" target="Nv2ZJM5Azdes68pqQ0xc-31" edge="1">
          <mxGeometry relative="1" as="geometry" />
        </mxCell>
        <mxCell id="Nv2ZJM5Azdes68pqQ0xc-71" value="Demod&lt;br&gt;selector" style="shape=trapezoid;perimeter=trapezoidPerimeter;whiteSpace=wrap;html=1;fixedSize=1;fillColor=#f5f5f5;fontColor=#333333;strokeColor=#666666;shadow=1;direction=east;rotation=-90;" parent="1" vertex="1">
          <mxGeometry x="1070" y="680" width="120" height="60" as="geometry" />
        </mxCell>
        <mxCell id="Nv2ZJM5Azdes68pqQ0xc-79" value="Enable" style="text;html=1;strokeColor=none;fillColor=none;align=center;verticalAlign=middle;whiteSpace=wrap;rounded=0;" parent="1" vertex="1">
          <mxGeometry x="935" y="1065" width="200" height="30" as="geometry" />
        </mxCell>
        <mxCell id="Nv2ZJM5Azdes68pqQ0xc-80" value="" style="edgeStyle=orthogonalEdgeStyle;rounded=0;orthogonalLoop=1;jettySize=auto;html=1;" parent="1" edge="1">
          <mxGeometry relative="1" as="geometry">
            <mxPoint x="1579.71" y="1100" as="sourcePoint" />
            <mxPoint x="1579.71" y="1080" as="targetPoint" />
          </mxGeometry>
        </mxCell>
        <mxCell id="Nv2ZJM5Azdes68pqQ0xc-81" value="Select" style="text;html=1;strokeColor=none;fillColor=none;align=center;verticalAlign=middle;whiteSpace=wrap;rounded=0;" parent="1" vertex="1">
          <mxGeometry x="1480" y="1093" width="200" height="30" as="geometry" />
        </mxCell>
        <mxCell id="Nv2ZJM5Azdes68pqQ0xc-82" value="" style="edgeStyle=orthogonalEdgeStyle;rounded=0;orthogonalLoop=1;jettySize=auto;html=1;" parent="1" edge="1">
          <mxGeometry relative="1" as="geometry">
            <mxPoint x="1850" y="780" as="sourcePoint" />
            <mxPoint x="1850" y="760" as="targetPoint" />
          </mxGeometry>
        </mxCell>
        <mxCell id="Nv2ZJM5Azdes68pqQ0xc-83" value="Select" style="text;html=1;strokeColor=none;fillColor=none;align=center;verticalAlign=middle;whiteSpace=wrap;rounded=0;" parent="1" vertex="1">
          <mxGeometry x="1750" y="775" width="200" height="30" as="geometry" />
        </mxCell>
        <mxCell id="Nv2ZJM5Azdes68pqQ0xc-86" value="Enable" style="text;html=1;strokeColor=none;fillColor=none;align=center;verticalAlign=middle;whiteSpace=wrap;rounded=0;" parent="1" vertex="1">
          <mxGeometry x="1780" y="925" width="200" height="30" as="geometry" />
        </mxCell>
        <mxCell id="6D3V5bIXzJbrIAl-vdKd-27" value="" style="edgeStyle=orthogonalEdgeStyle;rounded=0;orthogonalLoop=1;jettySize=auto;html=1;startArrow=classic;startFill=1;endArrow=classic;endFill=1;" parent="1" source="Nv2ZJM5Azdes68pqQ0xc-90" edge="1">
          <mxGeometry relative="1" as="geometry">
            <mxPoint x="600" y="890" as="targetPoint" />
          </mxGeometry>
        </mxCell>
        <mxCell id="Nv2ZJM5Azdes68pqQ0xc-90" value="Control IO" style="whiteSpace=wrap;html=1;shadow=1;fontSize=18;fillColor=#f5f5f5;strokeColor=#666666;direction=east;rotation=-90;" parent="1" vertex="1">
          <mxGeometry x="470" y="860" width="120" height="60" as="geometry" />
        </mxCell>
        <mxCell id="Nv2ZJM5Azdes68pqQ0xc-94" value="" style="edgeStyle=orthogonalEdgeStyle;rounded=0;orthogonalLoop=1;jettySize=auto;html=1;" parent="1" edge="1">
          <mxGeometry relative="1" as="geometry">
            <mxPoint x="1130" y="780" as="sourcePoint" />
            <mxPoint x="1130" y="760" as="targetPoint" />
          </mxGeometry>
        </mxCell>
        <mxCell id="Nv2ZJM5Azdes68pqQ0xc-95" value="Select" style="text;html=1;strokeColor=none;fillColor=none;align=center;verticalAlign=middle;whiteSpace=wrap;rounded=0;" parent="1" vertex="1">
          <mxGeometry x="1030" y="775" width="200" height="30" as="geometry" />
        </mxCell>
        <mxCell id="Nv2ZJM5Azdes68pqQ0xc-99" value="" style="edgeStyle=orthogonalEdgeStyle;rounded=0;orthogonalLoop=1;jettySize=auto;html=1;startArrow=none;startFill=0;" parent="1" target="Nv2ZJM5Azdes68pqQ0xc-24" edge="1">
          <mxGeometry relative="1" as="geometry">
            <mxPoint x="1055" y="1080" as="sourcePoint" />
          </mxGeometry>
        </mxCell>
        <mxCell id="Nv2ZJM5Azdes68pqQ0xc-109" value="LIFCL-40" style="text;html=1;strokeColor=none;fillColor=none;align=right;verticalAlign=middle;whiteSpace=wrap;rounded=0;fontSize=42;" parent="1" vertex="1">
          <mxGeometry x="2010" y="1440" width="200" height="30" as="geometry" />
        </mxCell>
        <mxCell id="YffSBHBRbh6OPDNjURyr-10" style="edgeStyle=orthogonalEdgeStyle;rounded=0;orthogonalLoop=1;jettySize=auto;html=1;exitX=1;exitY=0.5;exitDx=0;exitDy=0;entryX=0;entryY=0.5;entryDx=0;entryDy=0;" parent="1" source="6D3V5bIXzJbrIAl-vdKd-2" target="YffSBHBRbh6OPDNjURyr-1" edge="1">
          <mxGeometry relative="1" as="geometry" />
        </mxCell>
        <mxCell id="6D3V5bIXzJbrIAl-vdKd-2" value="Polynomial predistortion" style="whiteSpace=wrap;html=1;shadow=1;fontSize=18;fillColor=#f5f5f5;strokeColor=#666666;glass=0;" parent="1" vertex="1">
          <mxGeometry x="1640" y="1000" width="120" height="60" as="geometry" />
        </mxCell>
        <mxCell id="YffSBHBRbh6OPDNjURyr-15" style="edgeStyle=orthogonalEdgeStyle;rounded=0;orthogonalLoop=1;jettySize=auto;html=1;exitX=0.5;exitY=0;exitDx=0;exitDy=0;entryX=0.5;entryY=1;entryDx=0;entryDy=0;" parent="1" source="6D3V5bIXzJbrIAl-vdKd-5" target="Nv2ZJM5Azdes68pqQ0xc-68" edge="1">
          <mxGeometry relative="1" as="geometry" />
        </mxCell>
        <mxCell id="6D3V5bIXzJbrIAl-vdKd-5" value="I/Q offset null" style="whiteSpace=wrap;html=1;shadow=1;fontSize=18;fillColor=#f5f5f5;strokeColor=#666666;glass=0;" parent="1" vertex="1">
          <mxGeometry x="1920" y="1000" width="120" height="60" as="geometry" />
        </mxCell>
        <mxCell id="6D3V5bIXzJbrIAl-vdKd-9" value="FM submodule" style="text;html=1;strokeColor=none;fillColor=none;align=left;verticalAlign=middle;whiteSpace=wrap;rounded=0;fontSize=22;" parent="1" vertex="1">
          <mxGeometry x="1210" y="1095" width="250" height="30" as="geometry" />
        </mxCell>
        <mxCell id="YffSBHBRbh6OPDNjURyr-11" style="edgeStyle=orthogonalEdgeStyle;rounded=0;orthogonalLoop=1;jettySize=auto;html=1;exitX=1;exitY=0.5;exitDx=0;exitDy=0;entryX=0;entryY=0.5;entryDx=0;entryDy=0;" parent="1" source="YffSBHBRbh6OPDNjURyr-1" target="6D3V5bIXzJbrIAl-vdKd-5" edge="1">
          <mxGeometry relative="1" as="geometry" />
        </mxCell>
        <mxCell id="YffSBHBRbh6OPDNjURyr-1" value="I/Q balancer" style="whiteSpace=wrap;html=1;shadow=1;fontSize=18;fillColor=#f5f5f5;strokeColor=#666666;glass=0;" parent="1" vertex="1">
          <mxGeometry x="1780" y="1000" width="120" height="60" as="geometry" />
        </mxCell>
        <mxCell id="YffSBHBRbh6OPDNjURyr-5" value="Coeffs" style="text;html=1;strokeColor=none;fillColor=none;align=center;verticalAlign=middle;whiteSpace=wrap;rounded=0;" parent="1" vertex="1">
          <mxGeometry x="1600" y="1070" width="200" height="30" as="geometry" />
        </mxCell>
        <mxCell id="YffSBHBRbh6OPDNjURyr-19" value="" style="edgeStyle=orthogonalEdgeStyle;rounded=0;orthogonalLoop=1;jettySize=auto;html=1;exitX=0.5;exitY=0.333;exitDx=0;exitDy=0;exitPerimeter=0;entryX=0.5;entryY=1;entryDx=0;entryDy=0;" parent="1" source="YffSBHBRbh6OPDNjURyr-5" target="6D3V5bIXzJbrIAl-vdKd-2" edge="1">
          <mxGeometry relative="1" as="geometry">
            <mxPoint x="1710" y="990" as="sourcePoint" />
            <mxPoint x="1709.7" y="1010" as="targetPoint" />
            <Array as="points">
              <mxPoint x="1700" y="1070" />
              <mxPoint x="1700" y="1070" />
            </Array>
          </mxGeometry>
        </mxCell>
        <mxCell id="YffSBHBRbh6OPDNjURyr-20" value="Coeffs" style="text;html=1;strokeColor=none;fillColor=none;align=center;verticalAlign=middle;whiteSpace=wrap;rounded=0;" parent="1" vertex="1">
          <mxGeometry x="1740" y="1070" width="200" height="30" as="geometry" />
        </mxCell>
        <mxCell id="YffSBHBRbh6OPDNjURyr-21" value="" style="edgeStyle=orthogonalEdgeStyle;rounded=0;orthogonalLoop=1;jettySize=auto;html=1;exitX=0.5;exitY=0.333;exitDx=0;exitDy=0;exitPerimeter=0;entryX=0.5;entryY=1;entryDx=0;entryDy=0;" parent="1" source="YffSBHBRbh6OPDNjURyr-20" edge="1">
          <mxGeometry relative="1" as="geometry">
            <mxPoint x="1850" y="990" as="sourcePoint" />
            <mxPoint x="1840" y="1060.0000000000002" as="targetPoint" />
            <Array as="points">
              <mxPoint x="1840" y="1070" />
              <mxPoint x="1840" y="1070" />
            </Array>
          </mxGeometry>
        </mxCell>
        <mxCell id="YffSBHBRbh6OPDNjURyr-22" value="Coeffs" style="text;html=1;strokeColor=none;fillColor=none;align=center;verticalAlign=middle;whiteSpace=wrap;rounded=0;" parent="1" vertex="1">
          <mxGeometry x="1880" y="1070" width="200" height="30" as="geometry" />
        </mxCell>
        <mxCell id="YffSBHBRbh6OPDNjURyr-23" value="" style="edgeStyle=orthogonalEdgeStyle;rounded=0;orthogonalLoop=1;jettySize=auto;html=1;exitX=0.5;exitY=0.333;exitDx=0;exitDy=0;exitPerimeter=0;entryX=0.5;entryY=1;entryDx=0;entryDy=0;" parent="1" source="YffSBHBRbh6OPDNjURyr-22" edge="1">
          <mxGeometry relative="1" as="geometry">
            <mxPoint x="1990" y="990" as="sourcePoint" />
            <mxPoint x="1980" y="1060.0000000000002" as="targetPoint" />
            <Array as="points">
              <mxPoint x="1980" y="1070" />
              <mxPoint x="1980" y="1070" />
            </Array>
          </mxGeometry>
        </mxCell>
        <mxCell id="YffSBHBRbh6OPDNjURyr-25" value="I/Q submodule" style="text;html=1;strokeColor=none;fillColor=none;align=left;verticalAlign=middle;whiteSpace=wrap;rounded=0;fontSize=22;" parent="1" vertex="1">
          <mxGeometry x="1910" y="1100" width="250" height="30" as="geometry" />
        </mxCell>
        <mxCell id="5j33_QuICFPkO5fonPvE-5" style="edgeStyle=orthogonalEdgeStyle;rounded=0;orthogonalLoop=1;jettySize=auto;html=1;exitX=0.25;exitY=0;exitDx=0;exitDy=0;" edge="1" parent="1" source="H7sROJZ5ojz0b0a_24bi-4">
          <mxGeometry relative="1" as="geometry">
            <mxPoint x="1999.7777777777778" y="1210" as="targetPoint" />
          </mxGeometry>
        </mxCell>
        <mxCell id="5j33_QuICFPkO5fonPvE-6" style="edgeStyle=orthogonalEdgeStyle;rounded=0;orthogonalLoop=1;jettySize=auto;html=1;exitX=0.5;exitY=0;exitDx=0;exitDy=0;" edge="1" parent="1" source="H7sROJZ5ojz0b0a_24bi-4">
          <mxGeometry relative="1" as="geometry">
            <mxPoint x="2059.777777777778" y="1210" as="targetPoint" />
          </mxGeometry>
        </mxCell>
        <mxCell id="5j33_QuICFPkO5fonPvE-7" style="edgeStyle=orthogonalEdgeStyle;rounded=0;orthogonalLoop=1;jettySize=auto;html=1;exitX=0.75;exitY=0;exitDx=0;exitDy=0;" edge="1" parent="1" source="H7sROJZ5ojz0b0a_24bi-4">
          <mxGeometry relative="1" as="geometry">
            <mxPoint x="2119.777777777778" y="1210" as="targetPoint" />
          </mxGeometry>
        </mxCell>
        <mxCell id="H7sROJZ5ojz0b0a_24bi-4" value="PLL0" style="whiteSpace=wrap;html=1;shadow=1;fontSize=18;fillColor=#f5f5f5;strokeColor=#666666;direction=east;" parent="1" vertex="1">
          <mxGeometry x="1940" y="1260" width="240" height="60" as="geometry" />
        </mxCell>
        <mxCell id="H7sROJZ5ojz0b0a_24bi-5" value="&lt;font style=&quot;font-size: 18px;&quot;&gt;38, 64, 152 MHz clocks&lt;/font&gt;" style="text;html=1;strokeColor=none;fillColor=none;align=center;verticalAlign=middle;whiteSpace=wrap;rounded=0;direction=east;" parent="1" vertex="1">
          <mxGeometry x="1960" y="1180" width="200" height="30" as="geometry" />
        </mxCell>
        <mxCell id="H7sROJZ5ojz0b0a_24bi-9" value="CTCSS generator" style="whiteSpace=wrap;html=1;shadow=1;fontSize=18;fillColor=#f5f5f5;strokeColor=#666666;" parent="1" vertex="1">
          <mxGeometry x="1075" y="890" width="120" height="60" as="geometry" />
        </mxCell>
        <mxCell id="H7sROJZ5ojz0b0a_24bi-57" style="edgeStyle=orthogonalEdgeStyle;rounded=0;orthogonalLoop=1;jettySize=auto;html=1;exitX=0;exitY=0.5;exitDx=0;exitDy=0;entryX=1;entryY=0.5;entryDx=0;entryDy=0;" parent="1" source="H7sROJZ5ojz0b0a_24bi-9" target="H7sROJZ5ojz0b0a_24bi-11" edge="1">
          <mxGeometry relative="1" as="geometry" />
        </mxCell>
        <mxCell id="H7sROJZ5ojz0b0a_24bi-58" style="edgeStyle=orthogonalEdgeStyle;rounded=0;orthogonalLoop=1;jettySize=auto;html=1;exitX=0.5;exitY=1;exitDx=0;exitDy=0;entryX=0.5;entryY=0;entryDx=0;entryDy=0;" parent="1" source="H7sROJZ5ojz0b0a_24bi-11" target="Nv2ZJM5Azdes68pqQ0xc-13" edge="1">
          <mxGeometry relative="1" as="geometry" />
        </mxCell>
        <mxCell id="H7sROJZ5ojz0b0a_24bi-11" value="" style="ellipse;whiteSpace=wrap;html=1;aspect=fixed;fillColor=#f5f5f5;shadow=1;" parent="1" vertex="1">
          <mxGeometry x="975" y="900" width="40" height="40" as="geometry" />
        </mxCell>
        <mxCell id="H7sROJZ5ojz0b0a_24bi-12" value="" style="endArrow=none;html=1;rounded=0;entryX=0.5;entryY=0;entryDx=0;entryDy=0;exitX=0.5;exitY=1;exitDx=0;exitDy=0;" parent="1" source="H7sROJZ5ojz0b0a_24bi-11" target="H7sROJZ5ojz0b0a_24bi-11" edge="1">
          <mxGeometry width="50" height="50" relative="1" as="geometry">
            <mxPoint x="1245" y="930" as="sourcePoint" />
            <mxPoint x="1295" y="880" as="targetPoint" />
          </mxGeometry>
        </mxCell>
        <mxCell id="H7sROJZ5ojz0b0a_24bi-13" value="" style="endArrow=none;html=1;rounded=0;exitX=0;exitY=0.5;exitDx=0;exitDy=0;entryX=1;entryY=0.5;entryDx=0;entryDy=0;" parent="1" source="H7sROJZ5ojz0b0a_24bi-11" target="H7sROJZ5ojz0b0a_24bi-11" edge="1">
          <mxGeometry width="50" height="50" relative="1" as="geometry">
            <mxPoint x="1255" y="940" as="sourcePoint" />
            <mxPoint x="1305" y="890" as="targetPoint" />
          </mxGeometry>
        </mxCell>
        <mxCell id="H7sROJZ5ojz0b0a_24bi-36" value="" style="rounded=0;whiteSpace=wrap;html=1;fillColor=#d5e8d4;strokeColor=#82b366;shadow=1;" parent="1" vertex="1">
          <mxGeometry x="900" y="1280" width="460" height="190" as="geometry" />
        </mxCell>
        <mxCell id="H7sROJZ5ojz0b0a_24bi-63" style="edgeStyle=orthogonalEdgeStyle;rounded=0;orthogonalLoop=1;jettySize=auto;html=1;exitX=1;exitY=0.5;exitDx=0;exitDy=0;entryX=0;entryY=0.5;entryDx=0;entryDy=0;" parent="1" source="H7sROJZ5ojz0b0a_24bi-38" target="H7sROJZ5ojz0b0a_24bi-49" edge="1">
          <mxGeometry relative="1" as="geometry" />
        </mxCell>
        <mxCell id="H7sROJZ5ojz0b0a_24bi-64" style="edgeStyle=orthogonalEdgeStyle;rounded=0;orthogonalLoop=1;jettySize=auto;html=1;exitX=0.5;exitY=1;exitDx=0;exitDy=0;entryX=0;entryY=0.5;entryDx=0;entryDy=0;" parent="1" source="H7sROJZ5ojz0b0a_24bi-38" target="H7sROJZ5ojz0b0a_24bi-42" edge="1">
          <mxGeometry relative="1" as="geometry" />
        </mxCell>
        <mxCell id="H7sROJZ5ojz0b0a_24bi-38" value="2-way splitter" style="whiteSpace=wrap;html=1;shadow=1;fontSize=18;fillColor=#f5f5f5;strokeColor=#666666;" parent="1" vertex="1">
          <mxGeometry x="920" y="1320" width="120" height="60" as="geometry" />
        </mxCell>
        <mxCell id="dikk6X-pF4bb0Kzj7Zox-10" style="edgeStyle=orthogonalEdgeStyle;rounded=0;orthogonalLoop=1;jettySize=auto;html=1;exitX=1;exitY=0.5;exitDx=0;exitDy=0;" parent="1" source="H7sROJZ5ojz0b0a_24bi-42" edge="1">
          <mxGeometry relative="1" as="geometry">
            <mxPoint x="1340" y="1350" as="targetPoint" />
          </mxGeometry>
        </mxCell>
        <mxCell id="H7sROJZ5ojz0b0a_24bi-42" value="Delay block" style="whiteSpace=wrap;html=1;shadow=1;fontSize=18;fillColor=#f5f5f5;strokeColor=#666666;" parent="1" vertex="1">
          <mxGeometry x="1060" y="1400" width="120" height="60" as="geometry" />
        </mxCell>
        <mxCell id="H7sROJZ5ojz0b0a_24bi-47" value="SSB submodule" style="text;html=1;strokeColor=none;fillColor=none;align=left;verticalAlign=middle;whiteSpace=wrap;rounded=0;fontSize=22;" parent="1" vertex="1">
          <mxGeometry x="1195" y="1440" width="250" height="30" as="geometry" />
        </mxCell>
        <mxCell id="H7sROJZ5ojz0b0a_24bi-66" style="edgeStyle=orthogonalEdgeStyle;rounded=0;orthogonalLoop=1;jettySize=auto;html=1;exitX=1;exitY=0.5;exitDx=0;exitDy=0;entryX=0;entryY=0.5;entryDx=0;entryDy=0;" parent="1" source="H7sROJZ5ojz0b0a_24bi-49" target="H7sROJZ5ojz0b0a_24bi-65" edge="1">
          <mxGeometry relative="1" as="geometry" />
        </mxCell>
        <mxCell id="H7sROJZ5ojz0b0a_24bi-49" value="Sideband switch" style="whiteSpace=wrap;html=1;shadow=1;fontSize=18;fillColor=#f5f5f5;strokeColor=#666666;" parent="1" vertex="1">
          <mxGeometry x="1060" y="1320" width="120" height="60" as="geometry" />
        </mxCell>
        <mxCell id="H7sROJZ5ojz0b0a_24bi-53" value="Control" style="text;html=1;strokeColor=none;fillColor=none;align=center;verticalAlign=middle;whiteSpace=wrap;rounded=0;" parent="1" vertex="1">
          <mxGeometry x="1020" y="1280" width="200" height="30" as="geometry" />
        </mxCell>
        <mxCell id="H7sROJZ5ojz0b0a_24bi-54" value="" style="edgeStyle=orthogonalEdgeStyle;rounded=0;orthogonalLoop=1;jettySize=auto;html=1;startArrow=none;startFill=0;" parent="1" edge="1">
          <mxGeometry relative="1" as="geometry">
            <mxPoint x="1120" y="1300" as="sourcePoint" />
            <mxPoint x="1120" y="1320" as="targetPoint" />
          </mxGeometry>
        </mxCell>
        <mxCell id="H7sROJZ5ojz0b0a_24bi-55" value="Control" style="text;html=1;strokeColor=none;fillColor=none;align=center;verticalAlign=middle;whiteSpace=wrap;rounded=0;" parent="1" vertex="1">
          <mxGeometry x="1135" y="905" width="200" height="30" as="geometry" />
        </mxCell>
        <mxCell id="H7sROJZ5ojz0b0a_24bi-56" value="" style="edgeStyle=orthogonalEdgeStyle;rounded=0;orthogonalLoop=1;jettySize=auto;html=1;startArrow=none;startFill=0;endArrow=classic;endFill=1;" parent="1" edge="1">
          <mxGeometry relative="1" as="geometry">
            <mxPoint x="1215" y="920" as="sourcePoint" />
            <mxPoint x="1195" y="920" as="targetPoint" />
          </mxGeometry>
        </mxCell>
        <mxCell id="dikk6X-pF4bb0Kzj7Zox-9" style="edgeStyle=orthogonalEdgeStyle;rounded=0;orthogonalLoop=1;jettySize=auto;html=1;exitX=1;exitY=0.5;exitDx=0;exitDy=0;entryX=0.75;entryY=1;entryDx=0;entryDy=0;" parent="1" source="H7sROJZ5ojz0b0a_24bi-65" target="Nv2ZJM5Azdes68pqQ0xc-34" edge="1">
          <mxGeometry relative="1" as="geometry">
            <Array as="points">
              <mxPoint x="1490" y="1350" />
              <mxPoint x="1490" y="1060" />
            </Array>
          </mxGeometry>
        </mxCell>
        <mxCell id="H7sROJZ5ojz0b0a_24bi-65" value="Hilbert transformer" style="whiteSpace=wrap;html=1;shadow=1;fontSize=18;fillColor=#f5f5f5;strokeColor=#666666;" parent="1" vertex="1">
          <mxGeometry x="1200" y="1320" width="120" height="60" as="geometry" />
        </mxCell>
        <mxCell id="H7sROJZ5ojz0b0a_24bi-84" value="" style="rounded=0;whiteSpace=wrap;html=1;fillColor=#d5e8d4;strokeColor=#82b366;shadow=1;" parent="1" vertex="1">
          <mxGeometry x="900" y="1140" width="460" height="120" as="geometry" />
        </mxCell>
        <mxCell id="H7sROJZ5ojz0b0a_24bi-70" style="edgeStyle=orthogonalEdgeStyle;rounded=0;orthogonalLoop=1;jettySize=auto;html=1;exitX=1;exitY=0.5;exitDx=0;exitDy=0;entryX=0;entryY=0.5;entryDx=0;entryDy=0;" parent="1" edge="1">
          <mxGeometry relative="1" as="geometry">
            <mxPoint x="1900" y="939.76" as="sourcePoint" />
            <mxPoint x="1920" y="939.76" as="targetPoint" />
          </mxGeometry>
        </mxCell>
        <mxCell id="H7sROJZ5ojz0b0a_24bi-114" style="edgeStyle=orthogonalEdgeStyle;rounded=0;orthogonalLoop=1;jettySize=auto;html=1;exitX=1;exitY=0.5;exitDx=0;exitDy=0;entryX=0.5;entryY=1;entryDx=0;entryDy=0;" parent="1" source="H7sROJZ5ojz0b0a_24bi-87" target="Nv2ZJM5Azdes68pqQ0xc-34" edge="1">
          <mxGeometry relative="1" as="geometry" />
        </mxCell>
        <mxCell id="H7sROJZ5ojz0b0a_24bi-87" value="Amplitude modulator" style="whiteSpace=wrap;html=1;shadow=1;fontSize=18;fillColor=#f5f5f5;strokeColor=#666666;" parent="1" vertex="1">
          <mxGeometry x="1210" y="1150" width="120" height="60" as="geometry" />
        </mxCell>
        <mxCell id="H7sROJZ5ojz0b0a_24bi-96" value="AM submodule" style="text;html=1;strokeColor=none;fillColor=none;align=left;verticalAlign=middle;whiteSpace=wrap;rounded=0;fontSize=22;" parent="1" vertex="1">
          <mxGeometry x="1210" y="1235" width="250" height="30" as="geometry" />
        </mxCell>
        <mxCell id="H7sROJZ5ojz0b0a_24bi-109" style="edgeStyle=orthogonalEdgeStyle;rounded=0;orthogonalLoop=1;jettySize=auto;html=1;exitX=1;exitY=0.5;exitDx=0;exitDy=0;entryX=0;entryY=0.5;entryDx=0;entryDy=0;" parent="1" source="H7sROJZ5ojz0b0a_24bi-104" target="H7sROJZ5ojz0b0a_24bi-11" edge="1">
          <mxGeometry relative="1" as="geometry" />
        </mxCell>
        <mxCell id="H7sROJZ5ojz0b0a_24bi-112" style="edgeStyle=orthogonalEdgeStyle;rounded=0;orthogonalLoop=1;jettySize=auto;html=1;exitX=1;exitY=0.5;exitDx=0;exitDy=0;entryX=0;entryY=0.5;entryDx=0;entryDy=0;" parent="1" source="H7sROJZ5ojz0b0a_24bi-104" target="H7sROJZ5ojz0b0a_24bi-87" edge="1">
          <mxGeometry relative="1" as="geometry">
            <Array as="points">
              <mxPoint x="830" y="920" />
              <mxPoint x="830" y="1180" />
            </Array>
          </mxGeometry>
        </mxCell>
        <mxCell id="H7sROJZ5ojz0b0a_24bi-113" style="edgeStyle=orthogonalEdgeStyle;rounded=0;orthogonalLoop=1;jettySize=auto;html=1;exitX=1;exitY=0.5;exitDx=0;exitDy=0;entryX=0;entryY=0.5;entryDx=0;entryDy=0;" parent="1" source="H7sROJZ5ojz0b0a_24bi-104" target="H7sROJZ5ojz0b0a_24bi-38" edge="1">
          <mxGeometry relative="1" as="geometry">
            <Array as="points">
              <mxPoint x="830" y="920" />
              <mxPoint x="830" y="1350" />
            </Array>
          </mxGeometry>
        </mxCell>
        <mxCell id="H7sROJZ5ojz0b0a_24bi-104" value="Sampler" style="whiteSpace=wrap;html=1;shadow=1;fontSize=18;fillColor=#f5f5f5;strokeColor=#666666;" parent="1" vertex="1">
          <mxGeometry x="640" y="890" width="120" height="60" as="geometry" />
        </mxCell>
        <mxCell id="H7sROJZ5ojz0b0a_24bi-106" value="Control" style="text;html=1;strokeColor=none;fillColor=none;align=center;verticalAlign=middle;whiteSpace=wrap;rounded=0;" parent="1" vertex="1">
          <mxGeometry x="600" y="960" width="200" height="30" as="geometry" />
        </mxCell>
        <mxCell id="H7sROJZ5ojz0b0a_24bi-107" value="" style="edgeStyle=orthogonalEdgeStyle;rounded=0;orthogonalLoop=1;jettySize=auto;html=1;startArrow=none;startFill=0;" parent="1" edge="1">
          <mxGeometry relative="1" as="geometry">
            <mxPoint x="699.69" y="970" as="sourcePoint" />
            <mxPoint x="699.69" y="950" as="targetPoint" />
          </mxGeometry>
        </mxCell>
        <mxCell id="dikk6X-pF4bb0Kzj7Zox-5" style="edgeStyle=orthogonalEdgeStyle;rounded=0;orthogonalLoop=1;jettySize=auto;html=1;exitX=0;exitY=0.5;exitDx=0;exitDy=0;entryX=0.5;entryY=0;entryDx=0;entryDy=0;" parent="1" source="dikk6X-pF4bb0Kzj7Zox-1" target="Nv2ZJM5Azdes68pqQ0xc-31" edge="1">
          <mxGeometry relative="1" as="geometry" />
        </mxCell>
        <mxCell id="dikk6X-pF4bb0Kzj7Zox-1" value="FIR filter" style="whiteSpace=wrap;html=1;shadow=1;fontSize=18;fillColor=#f5f5f5;strokeColor=#666666;glass=0;" parent="1" vertex="1">
          <mxGeometry x="1200" y="520" width="120" height="60" as="geometry" />
        </mxCell>
        <mxCell id="dikk6X-pF4bb0Kzj7Zox-3" style="edgeStyle=orthogonalEdgeStyle;rounded=0;orthogonalLoop=1;jettySize=auto;html=1;exitX=1;exitY=0.5;exitDx=0;exitDy=0;startArrow=classic;startFill=1;endArrow=none;endFill=0;" parent="1" source="dikk6X-pF4bb0Kzj7Zox-2" edge="1">
          <mxGeometry relative="1" as="geometry">
            <mxPoint x="1500" y="710" as="targetPoint" />
          </mxGeometry>
        </mxCell>
        <mxCell id="dikk6X-pF4bb0Kzj7Zox-4" value="" style="edgeStyle=orthogonalEdgeStyle;rounded=0;orthogonalLoop=1;jettySize=auto;html=1;" parent="1" source="dikk6X-pF4bb0Kzj7Zox-2" target="dikk6X-pF4bb0Kzj7Zox-1" edge="1">
          <mxGeometry relative="1" as="geometry" />
        </mxCell>
        <mxCell id="dikk6X-pF4bb0Kzj7Zox-2" value="Averaging block" style="whiteSpace=wrap;html=1;shadow=1;fontSize=18;fillColor=#f5f5f5;strokeColor=#666666;glass=0;" parent="1" vertex="1">
          <mxGeometry x="1360" y="520" width="120" height="60" as="geometry" />
        </mxCell>
        <mxCell id="dikk6X-pF4bb0Kzj7Zox-6" value="&lt;font style=&quot;font-size: 18px;&quot;&gt;RSSI estimator&lt;/font&gt;" style="text;html=1;strokeColor=none;fillColor=none;align=center;verticalAlign=middle;whiteSpace=wrap;rounded=0;" parent="1" vertex="1">
          <mxGeometry x="893" y="520" width="200" height="30" as="geometry" />
        </mxCell>
        <mxCell id="dikk6X-pF4bb0Kzj7Zox-7" value="&lt;font style=&quot;font-size: 18px;&quot;&gt;Baseband&lt;/font&gt;" style="text;html=1;strokeColor=none;fillColor=none;align=center;verticalAlign=middle;whiteSpace=wrap;rounded=0;" parent="1" vertex="1">
          <mxGeometry x="893" y="680" width="200" height="30" as="geometry" />
        </mxCell>
        <mxCell id="5j33_QuICFPkO5fonPvE-11" value="&lt;font style=&quot;font-size: 18px;&quot;&gt;26 MHz&lt;/font&gt;" style="text;html=1;strokeColor=none;fillColor=none;align=center;verticalAlign=middle;whiteSpace=wrap;rounded=0;rotation=270;" vertex="1" parent="1">
          <mxGeometry x="2270" y="970" width="70" height="30" as="geometry" />
        </mxCell>
      </root>
    </mxGraphModel>
  </diagram>
</mxfile>
